
<svg width="188px" height="197px" viewBox="0 0 188 197" version="1.1" xmlns="http://www.w3.org/2000/svg" xmlns:xlink="http://www.w3.org/1999/xlink">
    <g id="online-therapy" stroke="none" stroke-width="1" fill="none" fill-rule="evenodd">
        <g id="therapy-page/desktop@1440" transform="translate(-458.000000, -656.000000)">
            <g id="4-steps" transform="translate(60.000000, 646.000000)">
                <g id="it's-affordable" transform="translate(336.000000, 0.000000)">
                    <g id="icons/therapy/affordable" transform="translate(47.000000, 0.000000)">
                        <g id="payment-day-(2)" transform="translate(14.974906, 10.890841)">
                            <path d="M145.843311,42.332295 L145.843311,74.563109 L73.0181236,87.2968977 L0.191440565,74.563109 L0.191440565,38.4735711 C0.191440565,28.9957676 7.87897576,21.3082324 17.3567793,21.3082324 L128.679468,21.3082324 C138.160263,21.3082324 145.843311,32.8544914 145.843311,42.332295 Z" id="Path" fill="#A2ADDA"></path>
                            <path d="M12.0248605,74.563109 L12.0248605,38.4735711 C12.0248605,28.9957676 19.7123957,21.3082324 29.1887037,21.3082324 L17.3567793,21.3082324 C7.87897576,21.3082324 0.191440565,28.9957676 0.191440565,38.4735711 L0.191440565,74.563109 L73.0181236,87.2968977 L78.9348335,86.2619221 L12.0248605,74.563109 Z" id="Path" fill="#000000" fill-rule="nonzero" opacity="0.05"></path>
                            <path d="M145.843311,74.563109 L145.843311,165.448021 C145.843311,174.925825 138.160263,182.61336 128.679468,182.61336 L17.3567793,182.61336 C7.87897576,182.61336 0.191440565,174.925825 0.191440565,165.448021 L0.191440565,74.563109 L145.843311,74.563109 Z" id="Path" fill="#D4DFFF"></path>
                            <path d="M12.0248605,165.448021 L12.0248605,74.563109 L0.191440565,74.563109 L0.191440565,165.448021 C0.191440565,174.925825 7.87897576,182.61336 17.3567793,182.61336 L29.1887037,182.61336 C19.7123957,182.61336 12.0248605,174.925825 12.0248605,165.448021 L12.0248605,165.448021 Z" id="Path" fill="#000000" fill-rule="nonzero" opacity="0.05"></path>
                            <g id="Group" transform="translate(42.116924, 44.414211)" fill="#3A3A3A">
                                <path d="M3.05108401,11.2052556 C1.41785669,11.2052556 0.0927292152,9.88162364 0.0927292152,8.2469004 L0.0927292152,3.20662947 C0.0927292152,1.57340214 1.41785669,0.249770208 3.05108401,0.249770208 C4.68580686,0.249770208 6.0094388,1.57340214 6.0094388,3.20662947 L6.0094388,8.2469004 C6.0094388,9.88162364 4.68580686,11.2052556 3.05108401,11.2052556 Z" id="Path"></path>
                                <path d="M58.7498189,11.2052556 C57.1165916,11.2052556 55.7914642,9.88162364 55.7914642,8.2469004 L55.7914642,3.20662947 C55.7914642,1.57340214 57.1165916,0.249770208 58.7498189,0.249770208 C60.3845422,0.249770208 61.7081741,1.57340214 61.7081741,3.20662947 L61.7081741,8.2469004 C61.7081741,9.88162364 60.3845422,11.2052556 58.7498189,11.2052556 Z" id="Path"></path>
                                <path d="M30.9011992,13.895893 C27.3685228,13.895893 24.0512165,12.4197067 21.8002943,9.844233 C20.7249367,8.6133299 20.8505696,6.74528885 22.0799771,5.66993121 C23.3108799,4.59457356 25.1789213,4.72020643 26.2542786,5.94961362 C27.3819833,7.2403419 29.0765314,7.97918302 30.9011992,7.97918302 C32.7258671,7.97918302 34.4204155,7.2403419 35.5466244,5.94961362 C36.621982,4.72020643 38.4915186,4.59457356 39.7209262,5.66993121 C40.9518289,6.74528885 41.0774618,8.6133299 40.0021041,9.844233 C37.751182,12.4197067 34.4338761,13.895893 30.9011992,13.895893 Z" id="Path"></path>
                            </g>
                            <path d="M36.8523088,0 C30.8847472,0 26.0463864,4.83836125 26.0463864,10.8059224 L26.0463864,27.9533136 C26.0463864,33.9208751 30.8847472,38.7592364 36.8523088,38.7592364 C42.8183744,38.7592364 47.6567357,33.9208751 47.6567357,27.9533136 L47.6567357,10.8059224 C47.6567357,4.83836125 42.8183744,0 36.8523088,0 Z" id="Path" fill="#F8D77E"></path>
                            <path d="M109.183938,0 C115.1515,0 119.988365,4.83836125 119.988365,10.8059224 L119.988365,27.9533136 C119.988365,33.9208751 115.1515,38.7592364 109.183938,38.7592364 C103.216377,38.7592364 98.3780159,33.9208751 98.3780159,27.9533136 L98.3780159,10.8059224 C98.3795114,4.83836125 103.216377,0 109.183938,0 L109.183938,0 Z" id="Path" fill="#F8D77E"></path>
                            <path d="M58.1066985,140.348369 L58.1066985,138.662794 C58.1066985,132.09399 54.02363,130.230435 48.3432297,130.230435 C45.7707471,130.230435 44.882343,128.012417 44.882343,125.704661 C44.882343,123.485147 45.7707471,121.177391 48.3432297,121.177391 C52.7822578,121.177391 56.5093663,120.112503 56.5093663,112.480306 C56.5093663,106.621925 53.4911859,104.668633 48.6991893,104.668633 C42.9305467,104.668633 40.7992749,107.066127 40.7992749,110.615256 C40.7992749,113.278972 39.5579023,115.054284 35.2968542,115.054284 C30.1488979,115.054284 29.3502316,113.811416 29.3502316,110.082812 C29.3502316,103.781725 33.7877642,94.6404383 48.7874315,94.6404383 C59.5275462,94.6404383 67.5142073,98.7235064 67.5142073,110.527014 C67.5142073,117.538524 64.9417247,123.218925 60.5924344,125.260459 C65.8286333,127.301993 69.6439836,131.295324 69.6439836,138.662794 L69.6439836,140.348369 C69.6439836,154.637612 60.0599903,160.05179 48.3432297,160.05179 C33.7877642,160.05179 27.9308794,151.088483 27.9308794,143.898993 C27.9308794,140.348369 29.4399694,139.371722 33.4332997,139.371722 C38.1370545,139.371722 39.3799223,140.614591 39.3799223,143.454791 C39.3799223,147.448121 42.9305467,149.933858 48.6094515,149.933858 C55.2664981,149.933858 58.1066985,147.093657 58.1066985,140.348369 L58.1066985,140.348369 Z" id="Path" fill="#3A3A3A"></path>
                            <path d="M76.4790102,139.726187 L76.4790102,114.964546 C76.4790102,100.142859 85.532055,94.6404383 97.2473201,94.6404383 C108.962586,94.6404383 118.105368,100.142859 118.105368,114.964546 L118.105368,139.726187 C118.105368,154.54937 108.962586,160.05179 97.2473201,160.05179 C85.532055,160.05179 76.4790102,154.54937 76.4790102,139.726187 L76.4790102,139.726187 Z M106.566587,114.964546 C106.566587,107.953036 103.017459,104.758371 97.2473201,104.758371 C91.3904353,104.758371 88.0177909,107.953036 88.0177909,114.964546 L88.0177909,139.726187 C88.0177909,146.737698 91.3904353,149.933858 97.2473201,149.933858 C103.017459,149.933858 106.566587,146.739193 106.566587,139.726187 L106.566587,114.964546 Z" id="Shape" fill="#3A3A3A"></path>
                            <path d="M187.409593,152.516084 C187.409593,176.551313 167.925767,196.035139 143.890539,196.035139 C119.85531,196.035139 100.369991,176.551313 100.369991,152.516084 C100.369991,128.480856 119.85531,108.995537 143.890539,108.995537 C167.925767,108.995537 187.409593,128.480856 187.409593,152.516084 L187.409593,152.516084 Z" id="Path" fill="#F8D77E"></path>
                            <path d="M171.334711,152.711373 C171.334711,167.976361 158.958745,180.352328 143.693757,180.352328 C128.427272,180.352328 116.052802,167.976361 116.052802,152.711373 C116.052802,137.444889 128.427272,125.070418 143.693757,125.070418 C158.958745,125.070418 171.334711,137.444889 171.334711,152.711373 L171.334711,152.711373 Z" id="Path" fill="#FFFFFF" opacity="0.5"></path>
                        </g>
                    </g>
                </g>
            </g>
        </g>
    </g>
</svg>