
<svg width="197px" height="146px" viewBox="0 0 197 146" version="1.1" xmlns="http://www.w3.org/2000/svg" xmlns:xlink="http://www.w3.org/1999/xlink">
    <g id="online-therapy" stroke="none" stroke-width="1" fill="none" fill-rule="evenodd">
        <g id="therapy-page/desktop@1440" transform="translate(-789.000000, -682.000000)">
            <g id="4-steps" transform="translate(60.000000, 646.000000)">
                <g id="it's-convenient" transform="translate(672.000000, 0.000000)">
                    <g id="icons/therapy/convenient" transform="translate(47.000000, 0.000000)">
                        <g id="messages-(2)" transform="translate(10.890841, 36.302803)">
                            <path d="M196.035139,14.2699797 L196.035139,79.8954226 C196.035139,86.5414732 188.840036,90.6945848 183.08495,87.3711766 L171.51658,80.6902838 C165.641269,77.2971912 158.97684,75.5114336 152.192569,75.5114336 L93.480045,75.5114336 C85.5988199,75.5114336 79.2100653,69.1222962 79.2100653,61.2414539 L79.2100653,14.2699797 C79.2100653,6.38875454 85.5992027,-9.32587341e-15 93.480045,-9.32587341e-15 L181.765159,-9.32587341e-15 C189.646001,-9.32587341e-15 196.035139,6.38875454 196.035139,14.2699797 Z" id="Path" fill="#A2ADDA"></path>
                            <path d="M118.991828,50.9940233 C109.816569,46.6387061 90.0930786,44.5110356 79.2100653,46.6387061 L79.2100653,61.479606 C79.2100653,69.3608311 85.5992027,75.7495857 93.480045,75.7495857 L140.646358,75.7495857 C135.953892,66.6371963 134.102021,58.166539 118.991828,50.9940233 Z" id="Path" fill="#000000" fill-rule="nonzero" opacity="0.1"></path>
                            <g id="Group" transform="translate(97.634688, 16.846770)" fill="#3A3A3A">
                                <path d="M76.8228015,5.99132392 L3.15264323,5.99132392 C1.51888944,5.99132392 0.194503614,4.66732098 0.194503614,3.03318431 C0.194503614,1.39904765 1.51888944,0.0750447015 3.15264323,0.0750447015 L76.8224186,0.0750447015 C78.4561724,0.0750447015 79.7805582,1.39904765 79.7805582,3.03318431 C79.7805582,4.66732098 78.4565553,5.99132392 76.8228015,5.99132392 Z" id="Path"></path>
                                <path d="M76.8228015,23.0272369 L3.15264323,23.0272369 C1.51888944,23.0272369 0.194503614,21.703234 0.194503614,20.0690973 C0.194503614,18.4349607 1.51888944,17.1109577 3.15264323,17.1109577 L76.8224186,17.1109577 C78.4561724,17.1109577 79.7805582,18.4349607 79.7805582,20.0690973 C79.7805582,21.703234 78.4565553,23.0272369 76.8228015,23.0272369 Z" id="Path"></path>
                                <path d="M76.8228015,40.0635328 L35.7664579,40.0635328 C34.1327041,40.0635328 32.8083183,38.7395299 32.8083183,37.1053932 C32.8083183,35.4712565 34.1327041,34.1472536 35.7664579,34.1472536 L76.8224186,34.1472536 C78.4561724,34.1472536 79.7805582,35.4712565 79.7805582,37.1053932 C79.7805582,38.7395299 78.4565553,40.0635328 76.8228015,40.0635328 Z" id="Path"></path>
                            </g>
                            <path d="M0,70.9850129 L0,136.610456 C0,143.256506 7.1951022,147.409618 12.9501885,144.08621 L24.5185589,137.405317 C30.3938699,134.012224 37.0579159,132.226467 43.8425696,132.226467 L102.555859,132.226467 C110.437085,132.226467 116.825839,125.837329 116.825839,117.956487 L116.825839,70.9850129 C116.825839,63.1037877 110.436702,56.7150332 102.555859,56.7150332 L14.2699797,56.7150332 C6.38913742,56.7150332 0,63.1037877 0,70.9850129 Z" id="Path" fill="#A1CEFF"></path>
                            <g id="Group" transform="translate(27.444919, 86.745549)" fill="#3A3A3A">
                                <path d="M3.05108401,11.2052556 C1.41785669,11.2052556 0.0927292152,9.88162364 0.0927292152,8.2469004 L0.0927292152,3.20662947 C0.0927292152,1.57340214 1.41785669,0.249770208 3.05108401,0.249770208 C4.68580686,0.249770208 6.0094388,1.57340214 6.0094388,3.20662947 L6.0094388,8.2469004 C6.0094388,9.88162364 4.68580686,11.2052556 3.05108401,11.2052556 Z" id="Path"></path>
                                <path d="M58.7498189,11.2052556 C57.1165916,11.2052556 55.7914642,9.88162364 55.7914642,8.2469004 L55.7914642,3.20662947 C55.7914642,1.57340214 57.1165916,0.249770208 58.7498189,0.249770208 C60.3845422,0.249770208 61.7081741,1.57340214 61.7081741,3.20662947 L61.7081741,8.2469004 C61.7081741,9.88162364 60.3845422,11.2052556 58.7498189,11.2052556 Z" id="Path"></path>
                                <path d="M30.9011992,13.895893 C27.3685228,13.895893 24.0512165,12.4197067 21.8002943,9.844233 C20.7249367,8.6133299 20.8505696,6.74528885 22.0799771,5.66993121 C23.3108799,4.59457356 25.1789213,4.72020643 26.2542786,5.94961362 C27.3819833,7.2403419 29.0765314,7.97918302 30.9011992,7.97918302 C32.7258671,7.97918302 34.4204155,7.2403419 35.5466244,5.94961362 C36.621982,4.72020643 38.4915186,4.59457356 39.7209262,5.66993121 C40.9518289,6.74528885 41.0774618,8.6133299 40.0021041,9.844233 C37.751182,12.4197067 34.4338761,13.895893 30.9011992,13.895893 Z" id="Path"></path>
                            </g>
                            <path d="M24.5185589,56.7146503 L14.2699797,56.7146503 C6.38913742,56.7146503 0,63.1037877 0,70.9850129 L0,136.610456 C0,143.256506 7.1951022,147.409618 12.9501885,144.08621 C6.22373277,95.5955909 10.0798563,66.4717378 24.5185589,56.7146503 Z" id="Path" fill="#000000" fill-rule="nonzero" opacity="0.05"></path>
                        </g>
                    </g>
                </g>
            </g>
        </g>
    </g>
</svg>