
<svg width="185px" height="197px" viewBox="0 0 185 197" version="1.1" xmlns="http://www.w3.org/2000/svg" xmlns:xlink="http://www.w3.org/1999/xlink">
    <g id="online-therapy" stroke="none" stroke-width="1" fill="none" fill-rule="evenodd">
        <g id="therapy-page/desktop@1440" transform="translate(-1132.000000, -656.000000)">
            <g id="4-steps" transform="translate(60.000000, 646.000000)">
                <g id="it-works" transform="translate(1008.000000, 0.000000)">
                    <g id="icons/therapy/works" transform="translate(47.000000, 0.000000)">
                        <g id="like" transform="translate(16.790047, 10.890841)">
                            <path d="M129.324084,93.2779198 C134.657499,92.0111216 137.955362,86.6612553 136.688563,81.3278406 C135.421765,75.9944263 130.071899,72.6965635 124.738484,73.9618658 C124.738484,73.9618658 105.503194,78.3769638 92.6721896,81.4235609 C88.9166644,82.3134605 85.8162244,78.4696927 87.4599212,74.9788938 C92.468784,64.350951 95.9072361,48.5825304 86.6477947,43.3553055 C82.1833406,40.83517 76.725789,41.7938684 73.6163753,47.9738091 C67.5336504,60.0674684 61.0770183,67.3571663 56.4420627,71.495573 C51.9132972,75.538259 48.5182182,80.6921982 46.6965418,86.4832753 L40.0783813,107.511825 L55.396618,172.03926 L143.079388,151.224586 C148.412803,149.957788 151.710665,144.607921 150.443867,139.273011 C149.178565,133.939596 143.827203,130.64323 138.493788,131.908532 C143.827203,130.64323 147.125065,125.291867 145.858268,119.958453 C144.592965,114.625038 139.243099,111.327176 133.908188,112.593973 C139.243099,111.327176 142.539466,105.977309 141.274163,100.643895 C140.007365,95.3089844 134.657499,92.0111216 129.324084,93.2779198 L129.324084,93.2779198 Z" id="Path" fill="#9E7463" fill-rule="nonzero"></path>
                            <path d="M55.396618,172.037765 L91.1062659,163.562033 C87.8278462,154.769227 82.1788536,144.575017 72.6038343,138.13035 C52.861526,124.841683 46.6965418,86.4832753 46.6965418,86.4832753 L40.0783813,107.511825 L55.396618,172.037765 Z" id="Path" fill="#000000" fill-rule="nonzero" opacity="0.05"></path>
                            <path d="M31.9361748,195.662727 L50.988998,191.139944 C58.3280516,189.397535 62.8642956,182.036047 61.1233829,174.696994 L42.9828938,98.2822956 L10.9046342,105.896545 C3.4220001,107.673353 -1.2054775,115.179917 0.571330628,122.664047 L15.4947207,185.529838 C17.2371289,192.867395 24.5986171,197.405135 31.9361748,195.662727 L31.9361748,195.662727 Z" id="Path" fill="#A2ADDA"></path>
                            <path d="M0.571330628,122.664047 L15.4947207,185.529838 C17.2371289,192.867395 24.5986171,197.405135 31.9361748,195.662727 L45.7333561,192.387298 C51.4795645,161.800182 37.1230176,161.740356 23.2480636,143.84515 C8.15716302,124.382525 10.9046342,105.896545 10.9046342,105.896545 C3.4220001,107.673353 -1.2054775,115.179917 0.571330628,122.664047 L0.571330628,122.664047 Z" id="Path" fill="#000000" fill-rule="nonzero" opacity="0.1"></path>
                            <path d="M169.66121,20.3315861 L171.215168,31.5891888 L181.370492,36.6907808 C185.360832,38.6964198 185.32045,44.406733 181.301693,46.3555379 L171.074579,51.312054 L169.360588,62.5457266 C168.687555,66.9608246 163.243464,68.6882767 160.147511,65.4666907 L152.274518,57.273633 L141.060288,59.1147525 C136.652668,59.8386372 133.327884,55.1932124 135.435226,51.2552202 L140.794066,41.2345028 L135.578806,31.1375089 C133.528299,27.1696041 136.917395,22.5735347 141.314545,23.35874 L152.501853,25.3598924 L160.491506,17.2790065 C163.630832,14.1037856 169.050993,15.9060189 169.66121,20.3315861 L169.66121,20.3315861 Z" id="Path" fill="#F8D77E"></path>
                            <path d="M101.109035,5.27059806 C100.500314,6.43120648 99.282872,7.15509112 97.9727002,7.1386391 C93.5172205,7.08330091 89.438639,10.0730642 88.2959781,14.5808911 C86.2006014,22.854713 91.9901826,30.5631872 111.24342,31.34241 C113.280467,31.4246697 115.178421,30.2939739 116.075799,28.4633235 C124.556018,11.1618824 120.53427,2.40048511 112.260448,0.305108401 C107.752621,-0.837552472 103.181978,1.32512785 101.109035,5.27059806 Z" id="Path" fill="#DE7373"></path>
                        </g>
                    </g>
                </g>
            </g>
        </g>
    </g>
</svg>